<svg xmlns="http://www.w3.org/2000/svg" version="1.1" xmlns:xlink="http://www.w3.org/1999/xlink" xmlns:svgjs="http://svgjs.com/svgjs" width="249" height="206"><svg width="249" height="206" viewBox="0 0 249 206" fill="none" xmlns="http://www.w3.org/2000/svg">
<path d="M171.742 0.0615244C179.601 -0.550062 186.916 3.44939 188.925 9.76643L196.127 32.4072C104.879 34.6161 43.1526 84.9593 39.291 159.955L11.5985 153.606C3.95318 151.852 -0.79841 145.687 0.111055 139.161C10.2659 66.4226 83.2711 6.97003 171.742 0.0615244V0.0615244ZM200.179 45.1258L248.74 197.817C249.093 198.926 249.086 200.093 248.72 201.199C248.354 202.306 247.642 203.313 246.656 204.119C245.669 204.925 244.443 205.501 243.101 205.79C241.76 206.079 240.349 206.07 239.013 205.764L54.6887 163.476C56.7653 93.1071 114.548 45.9305 200.179 45.1418V45.1258ZM186.756 167.383C189.834 167.383 192.843 166.627 195.402 165.213C197.961 163.798 199.956 161.787 201.134 159.434C202.312 157.082 202.62 154.493 202.02 151.995C201.419 149.498 199.937 147.203 197.76 145.403C195.584 143.602 192.811 142.376 189.792 141.879C186.773 141.382 183.644 141.637 180.8 142.612C177.956 143.586 175.525 145.236 173.815 147.354C172.105 149.471 171.193 151.961 171.193 154.507C171.193 157.922 172.832 161.197 175.751 163.611C178.669 166.026 182.628 167.383 186.756 167.383ZM163.411 106.224C166.489 106.224 169.498 105.469 172.057 104.054C174.617 102.639 176.611 100.628 177.789 98.2757C178.967 95.9231 179.275 93.3342 178.675 90.8366C178.074 88.339 176.592 86.0448 174.416 84.2442C172.239 82.4435 169.466 81.2172 166.447 80.7204C163.428 80.2236 160.299 80.4786 157.455 81.4531C154.612 82.4276 152.181 84.0779 150.471 86.1953C148.761 88.3126 147.848 90.802 147.848 93.3485C147.848 96.7633 149.488 100.038 152.406 102.453C155.325 104.867 159.283 106.224 163.411 106.224ZM112.831 148.069C115.909 148.069 118.918 147.314 121.478 145.899C124.037 144.485 126.032 142.474 127.21 140.121C128.387 137.768 128.696 135.18 128.095 132.682C127.495 130.184 126.012 127.89 123.836 126.09C121.659 124.289 118.886 123.063 115.867 122.566C112.848 122.069 109.719 122.324 106.875 123.298C104.032 124.273 101.601 125.923 99.891 128.041C98.1809 130.158 97.2681 132.647 97.2681 135.194C97.2681 138.609 98.9078 141.884 101.826 144.298C104.745 146.713 108.704 148.069 112.831 148.069Z" fill="#FF8C42"></path>
</svg><style>@media (prefers-color-scheme: light) { :root { filter: none; } }
</style></svg>